<svg xmlns="http://www.w3.org/2000/svg" xmlns:xlink="http://www.w3.org/1999/xlink" width="500" zoomAndPan="magnify" viewBox="0 0 375 374.999991" height="500" preserveAspectRatio="xMidYMid meet" version="1.0"><defs><g/><clipPath id="f339d9a9d3"><path d="M 53.210938 101.800781 L 283 101.800781 L 283 179.800781 L 53.210938 179.800781 Z M 53.210938 101.800781 " clip-rule="nonzero"/></clipPath><clipPath id="ed386a50b1"><path d="M 191 103 L 324.710938 103 L 324.710938 179 L 191 179 Z M 191 103 " clip-rule="nonzero"/></clipPath><clipPath id="6a4799ee33"><rect x="0" width="243" y="0" height="89"/></clipPath><clipPath id="659369d248"><rect x="0" width="213" y="0" height="29"/></clipPath></defs><rect x="-37.5" width="450" fill="#ffffff" y="-37.499999" height="449.999989" fill-opacity="1"/><rect x="-37.5" width="450" fill="#ffffff" y="-37.499999" height="449.999989" fill-opacity="1"/><g clip-path="url(#f339d9a9d3)"><path fill="#000000" d="M 57.347656 179.097656 L 168.171875 107.398438 C 168.171875 107.398438 278.996094 179.097656 278.996094 179.097656 C 280.144531 179.839844 281.675781 179.511719 282.417969 178.363281 C 283.160156 177.214844 282.832031 175.679688 281.683594 174.941406 C 281.683594 174.941406 169.515625 102.375 169.515625 102.375 C 168.699219 101.84375 167.644531 101.84375 166.828125 102.375 C 166.828125 102.375 54.660156 174.941406 54.660156 174.941406 C 53.511719 175.679688 53.183594 177.214844 53.925781 178.363281 C 54.667969 179.511719 56.199219 179.839844 57.347656 179.097656 Z M 57.347656 179.097656 " fill-opacity="1" fill-rule="evenodd"/></g><g clip-path="url(#ed386a50b1)"><path fill="#000000" d="M 195.570312 122.058594 L 215.957031 108.871094 C 215.957031 108.871094 320.734375 177.609375 320.734375 177.609375 C 321.875 178.359375 323.410156 178.039062 324.160156 176.894531 C 324.910156 175.753906 324.589844 174.21875 323.449219 173.46875 C 323.449219 173.46875 217.324219 103.847656 217.324219 103.847656 C 216.503906 103.308594 215.445312 103.304688 214.621094 103.835938 C 214.621094 103.835938 205.597656 109.675781 192.882812 117.902344 C 191.734375 118.644531 191.40625 120.179688 192.148438 121.328125 C 192.890625 122.472656 194.425781 122.800781 195.570312 122.058594 Z M 195.570312 122.058594 " fill-opacity="1" fill-rule="evenodd"/></g><path fill="#000000" d="M 117.542969 137.929688 L 117.542969 119.234375 C 117.542969 117.875 116.4375 116.769531 115.078125 116.769531 L 94.453125 116.769531 C 93.085938 116.769531 91.988281 117.875 91.988281 119.234375 L 91.988281 152.140625 C 91.988281 153.5 93.085938 154.605469 94.453125 154.605469 C 95.816406 154.605469 96.921875 153.5 96.921875 152.140625 L 96.921875 121.695312 C 96.921875 121.695312 112.609375 121.695312 112.609375 121.695312 L 112.609375 137.929688 C 112.609375 139.289062 113.714844 140.394531 115.078125 140.394531 C 116.4375 140.394531 117.542969 139.289062 117.542969 137.929688 Z M 117.542969 137.929688 " fill-opacity="1" fill-rule="evenodd"/><g transform="matrix(1, 0, 0, 1, 66, 171)"><g clip-path="url(#6a4799ee33)"><g fill="#000000" fill-opacity="1"><g transform="translate(1.357625, 66.557751)"><g><path d="M 6.453125 -49.078125 L 27.34375 -49.078125 C 34.070312 -49.078125 39.328125 -47.628906 43.109375 -44.734375 C 46.898438 -41.835938 48.796875 -37.5625 48.796875 -31.90625 C 48.796875 -26.25 46.914062 -22.0625 43.15625 -19.34375 C 39.394531 -16.632812 34.125 -15.28125 27.34375 -15.28125 L 22.78125 -15.28125 L 22.78125 -1.890625 C 22.78125 -1.378906 22.59375 -0.9375 22.21875 -0.5625 C 21.84375 -0.1875 21.398438 0 20.890625 0 L 6.453125 0 C 5.929688 0 5.484375 -0.1875 5.109375 -0.5625 C 4.742188 -0.9375 4.5625 -1.378906 4.5625 -1.890625 L 4.5625 -47.1875 C 4.5625 -47.695312 4.742188 -48.140625 5.109375 -48.515625 C 5.484375 -48.890625 5.929688 -49.078125 6.453125 -49.078125 Z M 22.4375 -36.03125 L 22.4375 -28.25 L 27.34375 -28.25 C 28.1875 -28.25 28.929688 -28.5625 29.578125 -29.1875 C 30.234375 -29.820312 30.5625 -30.722656 30.5625 -31.890625 C 30.5625 -33.066406 30.304688 -34.050781 29.796875 -34.84375 C 29.285156 -35.632812 28.46875 -36.03125 27.34375 -36.03125 Z M 22.4375 -36.03125 "/></g></g></g><g fill="#000000" fill-opacity="1"><g transform="translate(52.257397, 66.557751)"><g><path d="M 49.703125 -2.3125 C 49.847656 -2.03125 49.921875 -1.722656 49.921875 -1.390625 C 49.921875 -1.066406 49.765625 -0.753906 49.453125 -0.453125 C 49.148438 -0.148438 48.789062 0 48.375 0 L 34 0 C 32.550781 0 31.546875 -0.628906 30.984375 -1.890625 L 24.953125 -15.28125 L 22.078125 -15.28125 L 22.078125 -1.890625 C 22.078125 -1.378906 21.890625 -0.9375 21.515625 -0.5625 C 21.148438 -0.1875 20.707031 0 20.1875 0 L 6.453125 0 C 5.929688 0 5.484375 -0.1875 5.109375 -0.5625 C 4.742188 -0.9375 4.5625 -1.378906 4.5625 -1.890625 L 4.5625 -47.1875 C 4.5625 -47.695312 4.742188 -48.140625 5.109375 -48.515625 C 5.484375 -48.890625 5.929688 -49.078125 6.453125 -49.078125 L 27.203125 -49.078125 C 33.929688 -49.078125 39.1875 -47.566406 42.96875 -44.546875 C 46.757812 -41.535156 48.65625 -37.210938 48.65625 -31.578125 C 48.65625 -25.953125 46.128906 -21.523438 41.078125 -18.296875 Z M 22.078125 -36.03125 L 22.078125 -28.609375 L 27.203125 -28.609375 C 28.234375 -28.609375 29.023438 -28.945312 29.578125 -29.625 C 30.140625 -30.300781 30.421875 -31.148438 30.421875 -32.171875 C 30.421875 -33.203125 30.148438 -34.101562 29.609375 -34.875 C 29.078125 -35.644531 28.273438 -36.03125 27.203125 -36.03125 Z M 22.078125 -36.03125 "/></g></g></g><g fill="#000000" fill-opacity="1"><g transform="translate(104.278933, 66.557751)"><g><path d="M 20.75 0 L 6.453125 0 C 5.929688 0 5.484375 -0.1875 5.109375 -0.5625 C 4.742188 -0.9375 4.5625 -1.378906 4.5625 -1.890625 L 4.5625 -47.1875 C 4.5625 -47.695312 4.742188 -48.140625 5.109375 -48.515625 C 5.484375 -48.890625 5.929688 -49.078125 6.453125 -49.078125 L 20.75 -49.078125 C 21.269531 -49.078125 21.710938 -48.890625 22.078125 -48.515625 C 22.453125 -48.140625 22.640625 -47.695312 22.640625 -47.1875 L 22.640625 -1.890625 C 22.640625 -1.378906 22.453125 -0.9375 22.078125 -0.5625 C 21.710938 -0.1875 21.269531 0 20.75 0 Z M 20.75 0 "/></g></g></g><g fill="#000000" fill-opacity="1"><g transform="translate(131.481556, 66.557751)"><g><path d="M 43.890625 -49.078125 L 54.96875 -49.078125 C 55.476562 -49.078125 55.921875 -48.890625 56.296875 -48.515625 C 56.671875 -48.140625 56.859375 -47.695312 56.859375 -47.1875 L 56.859375 -1.890625 C 56.859375 -1.378906 56.671875 -0.9375 56.296875 -0.5625 C 55.921875 -0.1875 55.476562 0 54.96875 0 L 42.28125 0 C 41.757812 0 41.3125 -0.1875 40.9375 -0.5625 C 40.570312 -0.9375 40.390625 -1.378906 40.390625 -1.890625 L 40.390625 -21.109375 L 35.75 -13.53125 C 35.007812 -12.363281 34.144531 -11.78125 33.15625 -11.78125 L 28.25 -11.78125 C 27.269531 -11.78125 26.40625 -12.363281 25.65625 -13.53125 L 21.03125 -21.109375 L 21.03125 -1.890625 C 21.03125 -1.378906 20.84375 -0.9375 20.46875 -0.5625 C 20.09375 -0.1875 19.648438 0 19.140625 0 L 6.453125 0 C 5.929688 0 5.484375 -0.1875 5.109375 -0.5625 C 4.742188 -0.9375 4.5625 -1.378906 4.5625 -1.890625 L 4.5625 -47.1875 C 4.5625 -47.695312 4.742188 -48.140625 5.109375 -48.515625 C 5.484375 -48.890625 5.929688 -49.078125 6.453125 -49.078125 L 17.53125 -49.078125 C 18.832031 -49.078125 19.835938 -48.445312 20.546875 -47.1875 L 30.703125 -30.359375 L 40.875 -47.1875 C 41.570312 -48.445312 42.578125 -49.078125 43.890625 -49.078125 Z M 43.890625 -49.078125 "/></g></g></g><g fill="#000000" fill-opacity="1"><g transform="translate(192.897812, 66.557751)"><g><path d="M 21.390625 -13.671875 L 42.984375 -13.671875 C 43.492188 -13.671875 43.9375 -13.484375 44.3125 -13.109375 C 44.6875 -12.734375 44.875 -12.289062 44.875 -11.78125 L 44.875 -1.890625 C 44.875 -1.378906 44.6875 -0.9375 44.3125 -0.5625 C 43.9375 -0.1875 43.492188 0 42.984375 0 L 6.453125 0 C 5.929688 0 5.484375 -0.1875 5.109375 -0.5625 C 4.742188 -0.9375 4.5625 -1.378906 4.5625 -1.890625 L 4.5625 -47.1875 C 4.5625 -47.695312 4.742188 -48.140625 5.109375 -48.515625 C 5.484375 -48.890625 5.929688 -49.078125 6.453125 -49.078125 L 42.421875 -49.078125 C 42.929688 -49.078125 43.375 -48.890625 43.75 -48.515625 C 44.125 -48.140625 44.3125 -47.695312 44.3125 -47.1875 L 44.3125 -37.296875 C 44.3125 -36.785156 44.125 -36.34375 43.75 -35.96875 C 43.375 -35.59375 42.929688 -35.40625 42.421875 -35.40625 L 21.390625 -35.40625 L 21.390625 -30.984375 L 40.875 -30.984375 C 41.382812 -30.984375 41.828125 -30.796875 42.203125 -30.421875 C 42.578125 -30.046875 42.765625 -29.601562 42.765625 -29.09375 L 42.765625 -19.984375 C 42.765625 -19.460938 42.578125 -19.015625 42.203125 -18.640625 C 41.828125 -18.273438 41.382812 -18.09375 40.875 -18.09375 L 21.390625 -18.09375 Z M 21.390625 -13.671875 "/></g></g></g></g></g><g transform="matrix(1, 0, 0, 1, 85, 243)"><g clip-path="url(#659369d248)"><g fill="#000000" fill-opacity="1"><g transform="translate(0.738185, 22.421663)"><g><path d="M 16.171875 -15.625 L 16.171875 0 L 12.5625 0 L 12.5625 -6.40625 L 5.46875 -6.40625 L 5.46875 0 L 1.859375 0 L 1.859375 -15.625 L 5.46875 -15.625 L 5.46875 -9.453125 L 12.5625 -9.453125 L 12.5625 -15.625 Z M 16.171875 -15.625 "/></g></g></g><g fill="#000000" fill-opacity="1"><g transform="translate(26.170428, 22.421663)"><g><path d="M 9.421875 0.265625 C 7.796875 0.265625 6.332031 -0.0820312 5.03125 -0.78125 C 3.726562 -1.476562 2.707031 -2.441406 1.96875 -3.671875 C 1.238281 -4.898438 0.875 -6.28125 0.875 -7.8125 C 0.875 -9.34375 1.238281 -10.722656 1.96875 -11.953125 C 2.707031 -13.179688 3.726562 -14.144531 5.03125 -14.84375 C 6.332031 -15.539062 7.796875 -15.890625 9.421875 -15.890625 C 11.035156 -15.890625 12.488281 -15.539062 13.78125 -14.84375 C 15.082031 -14.144531 16.101562 -13.179688 16.84375 -11.953125 C 17.59375 -10.722656 17.96875 -9.34375 17.96875 -7.8125 C 17.96875 -6.28125 17.59375 -4.898438 16.84375 -3.671875 C 16.101562 -2.441406 15.082031 -1.476562 13.78125 -0.78125 C 12.488281 -0.0820312 11.035156 0.265625 9.421875 0.265625 Z M 9.421875 -2.8125 C 10.335938 -2.8125 11.164062 -3.019531 11.90625 -3.4375 C 12.65625 -3.863281 13.238281 -4.457031 13.65625 -5.21875 C 14.082031 -5.976562 14.296875 -6.84375 14.296875 -7.8125 C 14.296875 -8.78125 14.082031 -9.640625 13.65625 -10.390625 C 13.238281 -11.148438 12.65625 -11.742188 11.90625 -12.171875 C 11.164062 -12.597656 10.335938 -12.8125 9.421875 -12.8125 C 8.492188 -12.8125 7.65625 -12.597656 6.90625 -12.171875 C 6.164062 -11.742188 5.582031 -11.148438 5.15625 -10.390625 C 4.738281 -9.640625 4.53125 -8.78125 4.53125 -7.8125 C 4.53125 -6.84375 4.738281 -5.976562 5.15625 -5.21875 C 5.582031 -4.457031 6.164062 -3.863281 6.90625 -3.4375 C 7.65625 -3.019531 8.492188 -2.8125 9.421875 -2.8125 Z M 9.421875 -2.8125 "/></g></g></g><g fill="#000000" fill-opacity="1"><g transform="translate(52.405683, 22.421663)"><g><path d="M 16.0625 0 L 16.046875 -9.375 L 11.453125 -1.65625 L 9.8125 -1.65625 L 5.25 -9.171875 L 5.25 0 L 1.859375 0 L 1.859375 -15.625 L 4.84375 -15.625 L 10.6875 -5.90625 L 16.4375 -15.625 L 19.40625 -15.625 L 19.453125 0 Z M 16.0625 0 "/></g></g></g><g fill="#000000" fill-opacity="1"><g transform="translate(81.116922, 22.421663)"><g><path d="M 13.9375 -2.90625 L 13.9375 0 L 1.859375 0 L 1.859375 -15.625 L 13.65625 -15.625 L 13.65625 -12.71875 L 5.4375 -12.71875 L 5.4375 -9.328125 L 12.703125 -9.328125 L 12.703125 -6.515625 L 5.4375 -6.515625 L 5.4375 -2.90625 Z M 13.9375 -2.90625 "/></g></g></g><g fill="#000000" fill-opacity="1"><g transform="translate(103.493221, 22.421663)"><g/></g></g><g fill="#000000" fill-opacity="1"><g transform="translate(117.214736, 22.421663)"><g><path d="M 9.328125 0.265625 C 7.734375 0.265625 6.289062 -0.078125 5 -0.765625 C 3.71875 -1.460938 2.707031 -2.421875 1.96875 -3.640625 C 1.238281 -4.867188 0.875 -6.257812 0.875 -7.8125 C 0.875 -9.351562 1.238281 -10.738281 1.96875 -11.96875 C 2.707031 -13.195312 3.71875 -14.15625 5 -14.84375 C 6.289062 -15.539062 7.738281 -15.890625 9.34375 -15.890625 C 10.695312 -15.890625 11.921875 -15.648438 13.015625 -15.171875 C 14.109375 -14.691406 15.03125 -14.007812 15.78125 -13.125 L 13.453125 -10.984375 C 12.398438 -12.203125 11.09375 -12.8125 9.53125 -12.8125 C 8.5625 -12.8125 7.695312 -12.597656 6.9375 -12.171875 C 6.175781 -11.742188 5.582031 -11.148438 5.15625 -10.390625 C 4.738281 -9.640625 4.53125 -8.78125 4.53125 -7.8125 C 4.53125 -6.84375 4.738281 -5.976562 5.15625 -5.21875 C 5.582031 -4.457031 6.175781 -3.863281 6.9375 -3.4375 C 7.695312 -3.019531 8.5625 -2.8125 9.53125 -2.8125 C 11.09375 -2.8125 12.398438 -3.425781 13.453125 -4.65625 L 15.78125 -2.515625 C 15.03125 -1.609375 14.101562 -0.914062 13 -0.4375 C 11.90625 0.03125 10.679688 0.265625 9.328125 0.265625 Z M 9.328125 0.265625 "/></g></g></g><g fill="#000000" fill-opacity="1"><g transform="translate(140.97401, 22.421663)"><g><path d="M 12.140625 -3.34375 L 4.890625 -3.34375 L 3.5 0 L -0.203125 0 L 6.765625 -15.625 L 10.328125 -15.625 L 17.3125 0 L 13.515625 0 Z M 11 -6.09375 L 8.515625 -12.078125 L 6.046875 -6.09375 Z M 11 -6.09375 "/></g></g></g><g fill="#000000" fill-opacity="1"><g transform="translate(165.469383, 22.421663)"><g><path d="M 11.796875 0 L 8.796875 -4.34375 L 5.46875 -4.34375 L 5.46875 0 L 1.859375 0 L 1.859375 -15.625 L 8.609375 -15.625 C 9.992188 -15.625 11.195312 -15.390625 12.21875 -14.921875 C 13.238281 -14.460938 14.019531 -13.804688 14.5625 -12.953125 C 15.113281 -12.109375 15.390625 -11.109375 15.390625 -9.953125 C 15.390625 -8.796875 15.109375 -7.796875 14.546875 -6.953125 C 13.992188 -6.109375 13.207031 -5.460938 12.1875 -5.015625 L 15.6875 0 Z M 11.734375 -9.953125 C 11.734375 -10.828125 11.453125 -11.5 10.890625 -11.96875 C 10.328125 -12.4375 9.5 -12.671875 8.40625 -12.671875 L 5.46875 -12.671875 L 5.46875 -7.234375 L 8.40625 -7.234375 C 9.5 -7.234375 10.328125 -7.46875 10.890625 -7.9375 C 11.453125 -8.414062 11.734375 -9.085938 11.734375 -9.953125 Z M 11.734375 -9.953125 "/></g></g></g><g fill="#000000" fill-opacity="1"><g transform="translate(189.273275, 22.421663)"><g><path d="M 13.9375 -2.90625 L 13.9375 0 L 1.859375 0 L 1.859375 -15.625 L 13.65625 -15.625 L 13.65625 -12.71875 L 5.4375 -12.71875 L 5.4375 -9.328125 L 12.703125 -9.328125 L 12.703125 -6.515625 L 5.4375 -6.515625 L 5.4375 -2.90625 Z M 13.9375 -2.90625 "/></g></g></g></g></g></svg>